<svg width="420" height="38" fill="none" xmlns="http://www.w3.org/2000/svg"><path d="M403.789 3.92c-.52 1.2-1.08 2.68-1.68 4.48-1.48 4.48-5.64 17.36-7.36 21.52l-5.88.2c2.16-5.12 6.32-18.24 7.64-22.88.56-2 .76-3.28.92-4.6l6.36 1.28zm7.16 12.92c2.88 4.32 6.96 12.2 8.8 16.64l-5.4 2.4c-1.8-4.84-5.52-13.12-8.36-16.96l4.96-2.08zm-22.48 11.48c5.56-.2 18.64-1.68 24.24-2.44l1.16 5.12c-5.92.76-19.68 2.2-25.08 2.76-1 .12-2.52.32-3.76.48l-.96-5.88c1.36.04 3.12 0 4.4-.04zM342.88 3.44c1.28.16 2.92.28 4.28.28h16.08c1.32 0 2.92-.12 4.28-.28V8.6c-1.36-.08-2.92-.16-4.28-.16h-16.08c-1.36 0-3.08.08-4.28.16V3.44zm-4.68 10.2c1.2.16 2.6.24 3.84.24h26.2c.84 0 2.6-.04 3.68-.24v5.2c-1.04-.04-2.56-.08-3.68-.08h-26.2c-1.16 0-2.72.04-3.84.12v-5.24zm20.48 2.8c0 5.24-.92 9.24-2.64 12.56-1.36 2.8-4.48 5.88-8 7.72l-4.72-3.4c2.84-1.12 5.68-3.4 7.24-5.76 2-3.04 2.56-6.8 2.56-11.08l5.56-.04zM320.16 7c-.32.44-1.04 1.64-1.4 2.48-1.64 3.8-4.6 9.24-8.04 13.24-4.48 5.16-10.52 10.12-16.72 13.04l-4.16-4.32c6.48-2.4 12.64-7.28 16.4-11.44 2.64-3 5.08-6.96 6-9.8h-13.6c-1.64 0-3.84.2-4.72.28V4.76c1.08.16 3.56.28 4.72.28h14.12c1.76 0 3.32-.2 4.16-.48L320.16 7zm-8.92 12.4c4.12 3.36 9.8 9.32 12.4 12.52l-4.56 3.96c-2.96-4.12-7.32-8.88-11.6-12.76l3.76-3.72zM251.16 2.44c2.64 1.44 7.04 4.24 9.12 5.72l-2.96 4.4c-2.24-1.56-6.4-4.24-9.04-5.72l2.88-4.4zm-7.4 28.4c4.48-.76 9.24-2.12 13.6-4.52 6.8-3.8 12.4-9.28 15.56-15l3.08 5.44c-3.68 5.56-9.36 10.6-15.88 14.4-4.08 2.28-9.84 4.28-13.36 4.92l-3-5.24zM245 11.56c2.68 1.44 7.08 4.16 9.16 5.64l-2.96 4.48c-2.24-1.6-6.4-4.28-9.08-5.72l2.88-4.4zM208.68 2.4h19.56v4.56h-19.56V2.4zm10.16 12.44h4.92v17.28c0 2.56-.52 3.92-2.28 4.68-1.72.72-4.24.76-7.84.76-.16-1.4-.8-3.48-1.44-4.88 2.28.12 4.92.12 5.64.12.76-.04 1-.2 1-.8V14.84zm-11.88-1.36h22.32v4.56h-22.32v-4.56zM198 18.2l4.2-4.2.6.24v23.48H198V18.2zm4.52-9.36l4.56 1.72C203.92 15.88 199 21.48 194.72 25c-.68-1-2.32-3.16-3.28-4.12 4.08-2.88 8.44-7.52 11.08-12.04zM201 .12L205.6 2c-2.92 3.8-7.24 7.96-11.04 10.6-.64-1.08-1.88-2.96-2.68-3.92 3.32-2.16 7.16-5.76 9.12-8.56zm-49 13.56h21.76v4.52H152v-4.52zm-4.32-12.04H159V5.8h-11.32V1.64zm-.88 21.12h31.88v4.4H146.8v-4.4zm10.52-21.12h.84l.84-.16 3.2 1.48c-2.72 8.16-8.72 13.88-15.56 17.12-.64-1.08-1.96-2.72-2.92-3.6 5.96-2.48 11.52-7.92 13.6-14v-.84zm-1.92 14.32h4.76v6.92c0 5.68-1.44 11.64-11.32 14.96-.6-1.08-2.08-2.96-3.08-3.8 8.52-2.68 9.64-7.12 9.64-11.24v-6.84zM167.2.16C169.76 7.04 175 13 182.04 15.8c-1.12.96-2.6 2.88-3.36 4.16-7.44-3.52-12.64-10.24-15.76-18.56L167.2.16zm-20.76 8.76l3.04-2.52c1.52 1.08 3.6 2.64 4.64 3.72l-3.16 2.76c-.96-1.04-2.96-2.76-4.52-3.96zM172.8.76l3.6 2.52c-2.08 1.92-4.52 3.92-6.4 5.16l-2.88-2.2c1.8-1.4 4.28-3.76 5.68-5.48zm4.76 4.56l3.52 2.48c-2.16 1.96-4.8 4.04-6.84 5.4l-2.88-2.2c1.96-1.44 4.64-3.88 6.2-5.68zm-12.44 10.84h5v15.32c0 1.48.16 1.68 1.28 1.68h3.04c1.08 0 1.28-.76 1.44-4.52 1 .76 2.96 1.56 4.28 1.84-.44 5.32-1.72 6.96-5.24 6.96h-4.4c-4.36 0-5.4-1.44-5.4-5.96V16.16zm-63.32 8.6h26.64v13h-4.84v-10h-17.16V37.8h-4.64V24.76zm2.44 4.48h21.08v2.8h-21.08v-2.8zm0 4.36h21.08v3.04h-21.08V33.6zm8-33.6h4.84v22.32h-4.84V0zm-11.36 2.52h27.36V14.4h-27.8v-2.8h23.04V5.32h-22.6v-2.8zM96.8 6.76h36.08v3.32H96.8V6.76zm2.76 9.04h30.36v2.92H99.56V15.8zm-2.84 4.36h36.12v3.32H96.72v-3.32zM52.12 2.32H63.6v24.56H52.12v-4.4h7.04V6.64h-7.04V2.32zm.04 10h8.76v4.28h-8.76v-4.28zm17.08-10.6h12.28v4.44H69.24V1.72zm0 9.56h12.28v4.32H69.24v-4.32zm-.08 9.48h12.32v4.28H69.16v-4.28zM49.56 2.32H54v28.04h-4.44V2.32zm30.16-.6h4.76V32.2c0 2.48-.52 3.8-2.08 4.56-1.6.76-3.88.88-7.28.88-.2-1.32-.96-3.4-1.64-4.64 2.16.12 4.6.08 5.28.08.72 0 .96-.24.96-.96V1.72zm-13.36 0h4.72v14.52c0 6.92-1.08 16.32-8.48 21.76-.72-.96-2.56-2.6-3.6-3.24 6.76-4.92 7.36-12.44 7.36-18.56V1.72zm-50.16.44h20.76v4.56H16.2V2.16zM15.08 31.8h22.64v4.52H15.08V31.8zm12.76-15.6h8.88v4.56h-8.88V16.2zM25.08 4.04h4.72v30.4h-4.72V4.04zm-7.52 8.72h4.48v21.08h-4.48V12.76zm-15.6-.08h11.56v3.6H1.96v-3.6zM2.2 1.36h11.36V5H2.2V1.36zm-.24 16.92h11.56v3.6H1.96v-3.6zM0 6.92h14.96v3.76H0V6.92zm4.16 17h9.64v12.16H4.16v-3.76h5.52v-4.6H4.16v-3.8zm-2.32 0h4.04v13.76H1.84V23.92z" fill="#7897B3"/></svg>