<svg data-name="レイヤー_2" xmlns="http://www.w3.org/2000/svg" width="24" height="24"><g data-name="レイヤー_1"><g data-name="課題"><path data-name="パス_25726" d="M11.99 24c-1.6 0-3.19-.31-4.66-.94a12.002 12.002 0 01-6.39-6.39C.31 15.2 0 13.61 0 12.01a11.8 11.8 0 01.94-4.69c.6-1.42 1.47-2.72 2.57-3.81A12.24 12.24 0 017.33.94C8.8.31 10.39 0 11.99 0a11.8 11.8 0 014.69.94c2.87 1.21 5.16 3.5 6.37 6.37.63 1.48.96 3.08.94 4.7.01 1.6-.31 3.19-.95 4.66-.61 1.42-1.48 2.72-2.57 3.82a11.917 11.917 0 01-3.81 2.57 11.8 11.8 0 01-4.69.94" fill="transparent"/><path data-name="パス_25725" d="M10.25 17.52l8.37-8.37-1.66-1.65-6.72 6.72-3.33-3.33-1.63 1.65 4.96 4.99zM11.99 24c-1.6 0-3.19-.31-4.66-.94a12.002 12.002 0 01-6.39-6.39C.31 15.2 0 13.61 0 12.01a11.8 11.8 0 01.94-4.69c.6-1.42 1.47-2.72 2.57-3.81A12.24 12.24 0 017.33.94C8.8.31 10.39 0 11.99 0a11.8 11.8 0 014.69.94c2.87 1.21 5.16 3.5 6.37 6.37.63 1.48.96 3.08.94 4.7.01 1.6-.31 3.19-.95 4.66-.61 1.42-1.48 2.72-2.57 3.82a11.917 11.917 0 01-3.81 2.57 11.8 11.8 0 01-4.69.94m.02-2.29c2.58.05 5.07-.98 6.87-2.83a9.384 9.384 0 002.83-6.87c.05-2.58-.98-5.07-2.83-6.87a9.39 9.39 0 00-6.88-2.83c-2.58-.04-5.06.98-6.86 2.83a9.313 9.313 0 00-2.83 6.88c-.04 2.58.98 5.06 2.83 6.86a9.345 9.345 0 006.87 2.83" fill="#c81439"/><path data-name="長方形_3943" fill="none" d="M0 0h23.85v23.85H0z"/></g></g></svg>