<svg width="420" height="38" viewBox="0 0 420 38" fill="none" xmlns="http://www.w3.org/2000/svg">
<path d="M403.789 3.92014C403.269 5.12014 402.709 6.60014 402.109 8.40014C400.629 12.8801 396.469 25.7601 394.749 29.9201L388.869 30.1201C391.029 25.0001 395.189 11.8801 396.509 7.24014C397.069 5.24014 397.269 3.96014 397.429 2.64014L403.789 3.92014ZM410.949 16.8401C413.829 21.1601 417.909 29.0401 419.749 33.4801L414.349 35.8801C412.549 31.0401 408.829 22.7601 405.989 18.9201L410.949 16.8401ZM388.469 28.3201C394.029 28.1201 407.109 26.6401 412.709 25.8801L413.869 31.0001C407.949 31.7601 394.189 33.2001 388.789 33.7601C387.789 33.8801 386.269 34.0801 385.029 34.2401L384.069 28.3601C385.429 28.4001 387.189 28.3601 388.469 28.3201Z" fill="#7897B3"/>
<path d="M342.88 3.43994C344.16 3.59994 345.8 3.71994 347.16 3.71994C349.68 3.71994 360.88 3.71994 363.24 3.71994C364.56 3.71994 366.16 3.59994 367.52 3.43994V8.59994C366.16 8.51994 364.6 8.43994 363.24 8.43994C360.88 8.43994 349.68 8.43994 347.16 8.43994C345.8 8.43994 344.08 8.51994 342.88 8.59994V3.43994ZM338.2 13.6399C339.4 13.7999 340.8 13.8799 342.04 13.8799C344.56 13.8799 365.88 13.8799 368.24 13.8799C369.08 13.8799 370.84 13.8399 371.92 13.6399V18.8399C370.88 18.7999 369.36 18.7599 368.24 18.7599C365.88 18.7599 344.56 18.7599 342.04 18.7599C340.88 18.7599 339.32 18.7999 338.2 18.8799V13.6399ZM358.68 16.4399C358.68 21.6799 357.76 25.6799 356.04 28.9999C354.68 31.7999 351.56 34.8799 348.04 36.7199L343.32 33.3199C346.16 32.1999 349 29.9199 350.56 27.5599C352.56 24.5199 353.12 20.7599 353.12 16.4799L358.68 16.4399Z" fill="#7897B3"/>
<path d="M320.16 7.00006C319.84 7.44006 319.12 8.64006 318.76 9.48006C317.12 13.2801 314.16 18.7201 310.72 22.7201C306.24 27.8801 300.2 32.8401 294 35.7601L289.84 31.4401C296.32 29.0401 302.48 24.1601 306.24 20.0001C308.88 17.0001 311.32 13.0401 312.24 10.2001C310.56 10.2001 300.36 10.2001 298.64 10.2001C297 10.2001 294.8 10.4001 293.92 10.4801V4.76006C295 4.92006 297.48 5.04006 298.64 5.04006C300.76 5.04006 311 5.04006 312.76 5.04006C314.52 5.04006 316.08 4.84006 316.92 4.56006L320.16 7.00006ZM311.24 19.4001C315.36 22.7601 321.04 28.7201 323.64 31.9201L319.08 35.8801C316.12 31.7601 311.76 27.0001 307.48 23.1201L311.24 19.4001Z" fill="#7897B3"/>
<path d="M251.16 2.43994C253.8 3.87994 258.2 6.67994 260.28 8.15994L257.32 12.5599C255.08 10.9999 250.92 8.31994 248.28 6.83994L251.16 2.43994ZM243.76 30.8399C248.24 30.0799 253 28.7199 257.36 26.3199C264.16 22.5199 269.76 17.0399 272.92 11.3199L276 16.7599C272.32 22.3199 266.64 27.3599 260.12 31.1599C256.04 33.4399 250.28 35.4399 246.76 36.0799L243.76 30.8399ZM245 11.5599C247.68 12.9999 252.08 15.7199 254.16 17.1999L251.2 21.6799C248.96 20.0799 244.8 17.3999 242.12 15.9599L245 11.5599Z" fill="#7897B3"/>
<path d="M208.68 2.40012H228.24V6.96012H208.68V2.40012ZM218.84 14.8401H223.76V32.1201C223.76 34.6801 223.24 36.0401 221.48 36.8001C219.76 37.5201 217.24 37.5601 213.64 37.5601C213.48 36.1601 212.84 34.0801 212.2 32.6801C214.48 32.8001 217.12 32.8001 217.84 32.8001C218.6 32.7601 218.84 32.6001 218.84 32.0001V14.8401ZM206.96 13.4801H229.28V18.0401H206.96V13.4801ZM198 18.2001L202.2 14.0001L202.8 14.2401V37.7201H198V18.2001ZM202.52 8.84012L207.08 10.5601C203.92 15.8801 199 21.4801 194.72 25.0001C194.04 24.0001 192.4 21.8401 191.44 20.8801C195.52 18.0001 199.88 13.3601 202.52 8.84012ZM201 0.120117L205.6 2.00012C202.68 5.80012 198.36 9.96012 194.56 12.6001C193.92 11.5201 192.68 9.64012 191.88 8.68012C195.2 6.52012 199.04 2.92012 201 0.120117Z" fill="#7897B3"/>
<path d="M152 13.6802H173.76V18.2002H152V13.6802ZM147.68 1.64016H159V5.80016H147.68V1.64016ZM146.8 22.7602H178.68V27.1602H146.8V22.7602ZM157.32 1.64016H158.16L159 1.48016L162.2 2.96016C159.48 11.1202 153.48 16.8402 146.64 20.0802C146 19.0002 144.68 17.3602 143.72 16.4802C149.68 14.0002 155.24 8.56016 157.32 2.48016V1.64016ZM155.4 15.9602H160.16V22.8802C160.16 28.5602 158.72 34.5202 148.84 37.8402C148.24 36.7602 146.76 34.8802 145.76 34.0402C154.28 31.3602 155.4 26.9202 155.4 22.8002V15.9602ZM167.2 0.160156C169.76 7.04016 175 13.0002 182.04 15.8002C180.92 16.7602 179.44 18.6802 178.68 19.9602C171.24 16.4402 166.04 9.72016 162.92 1.40016L167.2 0.160156ZM146.44 8.92016L149.48 6.40016C151 7.48016 153.08 9.04015 154.12 10.1202L150.96 12.8802C150 11.8402 148 10.1202 146.44 8.92016ZM172.8 0.760155L176.4 3.28016C174.32 5.20016 171.88 7.20016 170 8.44016L167.12 6.24016C168.92 4.84016 171.4 2.48016 172.8 0.760155ZM177.56 5.32016L181.08 7.80016C178.92 9.76016 176.28 11.8402 174.24 13.2002L171.36 11.0002C173.32 9.56016 176 7.12016 177.56 5.32016ZM165.12 16.1602H170.12V31.4802C170.12 32.9602 170.28 33.1602 171.4 33.1602C171.88 33.1602 173.88 33.1602 174.44 33.1602C175.52 33.1602 175.72 32.4002 175.88 28.6402C176.88 29.4002 178.84 30.2002 180.16 30.4802C179.72 35.8002 178.44 37.4402 174.92 37.4402C174.04 37.4402 171.4 37.4402 170.52 37.4402C166.16 37.4402 165.12 36.0002 165.12 31.4802V16.1602Z" fill="#7897B3"/>
<path d="M101.8 24.76H128.44V37.76H123.6V27.76H106.44V37.8H101.8V24.76ZM104.24 29.24H125.32V32.04H104.24V29.24ZM104.24 33.6H125.32V36.64H104.24V33.6ZM112.24 0H117.08V22.32H112.24V0ZM100.88 2.52H128.24V14.4H100.44V11.6H123.48V5.32H100.88V2.52ZM96.7997 6.76H132.88V10.08H96.7997V6.76ZM99.5597 15.8H129.92V18.72H99.5597V15.8ZM96.7197 20.16H132.84V23.48H96.7197V20.16Z" fill="#7897B3"/>
<path d="M52.1205 2.32021H63.6005V26.8802H52.1205V22.4802H59.1605V6.64021H52.1205V2.32021ZM52.1605 12.3202H60.9205V16.6002H52.1605V12.3202ZM69.2405 1.72021H81.5205V6.16022H69.2405V1.72021ZM69.2405 11.2802H81.5205V15.6002H69.2405V11.2802ZM69.1605 20.7602H81.4805V25.0402H69.1605V20.7602ZM49.5605 2.32021H54.0005V30.3602H49.5605V2.32021ZM79.7206 1.72021H84.4805V32.2002C84.4805 34.6802 83.9605 36.0002 82.4006 36.7602C80.8005 37.5202 78.5205 37.6402 75.1205 37.6402C74.9205 36.3202 74.1605 34.2402 73.4805 33.0002C75.6405 33.1202 78.0805 33.0802 78.7605 33.0802C79.4805 33.0802 79.7206 32.8402 79.7206 32.1202V1.72021ZM66.3605 1.72021H71.0805V16.2402C71.0805 23.1602 70.0005 32.5602 62.6005 38.0002C61.8805 37.0402 60.0405 35.4002 59.0005 34.7602C65.7605 29.8402 66.3605 22.3202 66.3605 16.2002V1.72021Z" fill="#7897B3"/>
<path d="M16.2 2.15986H36.96V6.71986H16.2V2.15986ZM15.08 31.7999H37.72V36.3199H15.08V31.7999ZM27.84 16.1999H36.72V20.7599H27.84V16.1999ZM25.08 4.03986H29.8V34.4399H25.08V4.03986ZM17.56 12.7599H22.04V33.8399H17.56V12.7599ZM1.96 12.6799H13.52V16.2799H1.96V12.6799ZM2.2 1.35986H13.56V4.99986H2.2V1.35986ZM1.96 18.2799H13.52V21.8799H1.96V18.2799ZM0 6.91986H14.96V10.6799H0V6.91986ZM4.16 23.9199H13.8V36.0799H4.16V32.3199H9.68V27.7199H4.16V23.9199ZM1.84 23.9199H5.88V37.6799H1.84V23.9199Z" fill="#7897B3"/>
</svg>
